<svg xmlns="http://www.w3.org/2000/svg" viewBox="0 0 476.257 476.257" width="512" height="512"><path d="M473.721 182.408c8.282-24.847-4.351-51.747-28.761-61.24L326.565 75.125c-57.029-22.177-119.843-22.177-176.872 0L31.297 121.168c-24.41 9.493-37.043 36.394-28.762 61.24l27.268 81.804v36.571c-8.598 12.71-9.631 26.427-2.934 39.823 22.736 45.472 129.584 77.16 211.259 77.16 81.674 0 188.522-31.688 211.259-77.16 6.698-13.396 5.665-27.113-2.934-39.823v-36.571l27.268-81.804zm-436.987-47.26L155.13 89.105c53.522-20.814 112.478-20.814 165.998 0l118.396 46.043c16.947 6.591 25.718 25.266 19.968 42.516l-25.943 77.83h-7.983c-4.143 0-7.5 3.357-7.5 7.5s3.357 7.5 7.5 7.5h5.889v25.165H44.804v-25.165H385.4c4.143 0 7.5-3.357 7.5-7.5s-3.357-7.5-7.5-7.5H42.709l-25.944-77.83c-5.749-17.25 3.022-35.925 19.969-42.516zm151.555 57.866l4.308 2.154c.17 19 12.153 32.875 33.047 38.393l6.909 7.679c.066.073.139.137.207.207l.137.137c.134.131.272.257.416.378l.12.097c.154.124.311.243.473.354l.1.065c.174.115.35.224.532.323l.068.035a7.49 7.49 0 003.522.888 7.488 7.488 0 002.919-.598c.204-.086.402-.184.597-.287.025-.013.051-.025.075-.039a7.28 7.28 0 00.528-.321c.035-.023.07-.044.104-.068.162-.111.319-.229.472-.353l.12-.097a7.497 7.497 0 00.55-.512c.069-.071.143-.136.21-.21l6.905-7.678c20.894-5.518 32.88-19.394 33.05-38.394l4.308-2.154a7.499 7.499 0 003.354-10.062 7.497 7.497 0 00-10.062-3.354l-8.452 4.226a7.5 7.5 0 00-4.146 6.708v4.227c0 12.654-7.76 20.913-23.033 24.577v-54.782h7.646c4.143 0 7.5-3.357 7.5-7.5s-3.357-7.5-7.5-7.5h-7.646v-14.2c0-.133-.013-.263-.02-.394 6.995-2.934 11.922-9.851 11.922-17.899 0-10.698-8.704-19.402-19.402-19.402-10.699 0-19.402 8.704-19.402 19.402 0 8.048 4.927 14.965 11.922 17.899-.007.131-.02.261-.02.394v14.2h-7.646c-4.142 0-7.5 3.357-7.5 7.5s3.358 7.5 7.5 7.5h7.646v54.782c-15.273-3.664-23.033-11.922-23.033-24.577v-4.227a7.499 7.499 0 00-4.146-6.708l-8.452-4.226a7.5 7.5 0 10-6.707 13.417zm49.84-80.356c2.428 0 4.402 1.975 4.402 4.402s-1.975 4.402-4.402 4.402-4.402-1.975-4.402-4.402 1.974-4.402 4.402-4.402z" fill="#FFF"/></svg>