<svg xmlns="http://www.w3.org/2000/svg" viewBox="0 0 496 496" width="512" height="512"><g fill="#FFF"><path d="M240 272c0-13.232-10.768-24-24-24h-80c-13.232 0-24 10.768-24 24v80c0 13.232 10.768 24 24 24h80c13.232 0 24-10.768 24-24v-80zm-16 80c0 4.416-3.584 8-8 8h-80c-4.416 0-8-3.584-8-8v-80c0-4.416 3.584-8 8-8h80c4.416 0 8 3.584 8 8v80zm82.062 109.286l-72.008-80.005 11.893-10.704 72.007 80.005zm-260.152.072l-11.89-10.704 72.003-79.988 11.89 10.703zm256.08-272.066l-56 64.002-12.04-10.536 55.999-64.002zM45.945 162.648l72.008 80.005-11.893 10.704-72.008-80.005z"/><path d="M472 0H371.12a39.97 39.97 0 00-35.224 21.032l-44.648 82.92-15.928-7.24-6.624 14.56 8.744 3.976-8.84 17.68-7.96-3.616L211.312 80H40C17.944 80 0 97.944 0 120v336c0 22.056 17.944 40 40 40h272c22.056 0 40-17.944 40-40V170.848l-13.424-6.104 8.84-17.68 9.272 4.216 6.624-14.56-15.928-7.24 29.84-71.632A15.96 15.96 0 01392 48h80V0zM292 121.88l40.832 18.56-8.84 17.68-40.832-18.56 8.84-17.68zM204.688 96l32 32H123.752L97.088 96h107.6zM336 456c0 13.232-10.768 24-24 24H40c-13.232 0-24-10.768-24-24V120c0-13.232 10.768-24 24-24h36.248l40 48h138.016L336 181.152V456zm56-424a31.911 31.911 0 00-29.536 19.688l-29.648 71.16-26.968-12.256 44.136-81.968A23.96 23.96 0 01371.12 16H392v16zm32 0h-16V16h16v16zm32 0h-16V16h16v16z"/><path d="M248 448h16v16h-16zm-80 0h64v16h-64zm321.6-331.2L464 82.664 438.392 116.8c-4.12 5.512-6.392 12.328-6.392 19.2 0 17.648 14.352 32 32 32s32-14.352 32-32c0-6.872-2.272-13.688-6.4-19.2zM464 152c-8.824 0-16-7.176-16-16 0-3.44 1.136-6.848 3.192-9.6L464 109.336l12.8 17.064a16.097 16.097 0 013.2 9.6c0 8.824-7.176 16-16 16zm-32 34.664L406.392 220.8c-4.12 5.512-6.392 12.328-6.392 19.2 0 17.648 14.352 32 32 32s32-14.352 32-32c0-6.872-2.272-13.688-6.4-19.2L432 186.664zM432 256c-8.824 0-16-7.176-16-16 0-3.44 1.136-6.848 3.192-9.6L432 213.336l12.8 17.064a16.097 16.097 0 013.2 9.6c0 8.824-7.176 16-16 16z"/></g></svg>