<svg xmlns="http://www.w3.org/2000/svg" viewBox="0 0 441.21 107.74"><defs><clipPath id="clip-path"><path id="_Clipping_Path_" data-name="&lt;Clipping Path&gt;" fill="none" d="M0 0h442.69v117.81H0z"/></clipPath><clipPath id="clip-path-4"><path id="_Clipping_Path_4" data-name="&lt;Clipping Path&gt;" clip-rule="evenodd" fill="none" d="M442.69 0v117.81H0V0"/></clipPath><style>.cls-5{fill:#253b80}.cls-6{fill:#179bd7}</style></defs><g id="Layer_2" data-name="Layer 2"><g id="Layer_1-2" data-name="Layer 1"><g id="_Group_" data-name="&lt;Group&gt;"><g id="_Group_6" data-name="&lt;Group&gt;"><g id="_Group_7" data-name="&lt;Group&gt;"><g id="_Group_8" data-name="&lt;Group&gt;"><g id="_Group_9" data-name="&lt;Group&gt;"><path id="_Compound_Path_" data-name="&lt;Compound Path&gt;" class="cls-5" d="M167.79 47c-1.34 8.76-8 8.76-14.5 8.76h-3.68l2.58-16.36a2 2 0 012-1.72h1.69c4.41 0 8.57 0 10.72 2.51 1.29 1.47 1.68 3.69 1.19 6.81zM165 24.09h-24.44a3.39 3.39 0 00-3.35 2.91l-9.87 62.61a2 2 0 002 2.35H141a3.39 3.39 0 003.36-2.96L147 72.16a3.39 3.39 0 013.35-2.87h7.73c16.08 0 25.37-7.78 27.79-23.21 1.09-6.75 0-12-3.11-15.76-3.46-4.07-9.61-6.23-17.76-6.23z"/><path id="_Compound_Path_2" data-name="&lt;Compound Path&gt;" class="cls-5" d="M221.66 69.43a13 13 0 01-13.19 11.17c-3.4 0-6.11-1.09-7.85-3.15a9.94 9.94 0 01-1.84-8.21A13.09 13.09 0 01211.89 58a9.86 9.86 0 017.8 3.18 10.12 10.12 0 011.97 8.25zM238 46.68h-11.73a2 2 0 00-2 1.72l-.52 3.27-.82-1.19c-2.53-3.67-8.18-4.9-13.81-4.9-12.92 0-24 9.79-26.1 23.51-1.12 6.85.47 13.39 4.36 18C190.93 91.25 196 93 202.09 93a22.37 22.37 0 0016.18-6.69l-.52 3.25a2 2 0 002 2.36h10.53a3.39 3.39 0 003.36-2.92L240 49a2 2 0 00-2-2.32z"/><path id="_Path_" data-name="&lt;Path&gt;" class="cls-5" d="M300.23 46.68h-11.75a3.4 3.4 0 00-2.81 1.49L269.47 72l-6.87-22.9a3.4 3.4 0 00-3.26-2.42H247.8a2 2 0 00-1.93 2.69l12.94 38-12.17 17.18a2 2 0 001.66 3.21H260a3.39 3.39 0 002.79-1.46l39.11-56.43a2 2 0 00-1.67-3.19z"/><path id="_Compound_Path_3" data-name="&lt;Compound Path&gt;" class="cls-6" d="M341.95 47c-1.33 8.76-8 8.76-14.5 8.76h-3.68l2.59-16.36a2 2 0 012-1.72H330c4.41 0 8.57 0 10.72 2.51 1.28 1.47 1.72 3.69 1.23 6.81zm-2.82-22.87h-24.42a3.39 3.39 0 00-3.35 2.87l-9.87 62.61a2 2 0 002 2.35H316a2.37 2.37 0 002.34-2l2.8-17.75a3.39 3.39 0 013.35-2.87h7.73c16.09 0 25.37-7.78 27.79-23.21 1.1-6.75 0-12-3.12-15.76-3.44-4.12-9.59-6.28-17.76-6.28z"/><path id="_Compound_Path_4" data-name="&lt;Compound Path&gt;" class="cls-6" d="M395.81 69.43a13 13 0 01-13.19 11.17c-3.39 0-6.11-1.09-7.85-3.15a10 10 0 01-1.83-8.21A13.09 13.09 0 01386 58a9.86 9.86 0 017.8 3.18 10.07 10.07 0 012.01 8.25zm16.3-22.76h-11.68a2 2 0 00-2 1.72l-.52 3.27-.82-1.19c-2.53-3.67-8.17-4.9-13.81-4.9-12.92 0-24 9.79-26.1 23.51-1.11 6.85.47 13.39 4.35 18 3.57 4.2 8.66 5.95 14.73 5.95a22.37 22.37 0 0016.18-6.69l-.52 3.25a2 2 0 002 2.36h10.53A3.39 3.39 0 00407.8 89l6.32-40a2 2 0 00-2.01-2.32z"/><path id="_Path_2" data-name="&lt;Path&gt;" class="cls-6" d="M425.89 25.81l-10 63.75a2 2 0 002 2.35H428a3.39 3.39 0 003.31-2.91l9.88-62.61a2 2 0 00-2-2.35H427.9a2 2 0 00-2.01 1.77z"/><path id="_Path_3" data-name="&lt;Path&gt;" class="cls-5" d="M25.94 104.08l1.87-11.86-4.16-.1H3.79l13.8-87.51a1.16 1.16 0 01.41-.68 1.13 1.13 0 01.74-.27H52.2C63.32 3.66 71 6 75 10.54a15.69 15.69 0 013.65 6.84 24.71 24.71 0 010 9.44v2.68l1.88 1.06a13.18 13.18 0 013.8 2.9 13.5 13.5 0 013.08 6.92 29.27 29.27 0 01-.44 10 35.35 35.35 0 01-4.11 11.36 23.37 23.37 0 01-6.52 7.14 26.43 26.43 0 01-8.78 4 43.78 43.78 0 01-11 1.27H54a7.84 7.84 0 00-7.75 6.62L46 81.84l-3.3 20.9-.15.77a.66.66 0 01-.21.45.55.55 0 01-.34.12z"/><path id="_Path_4" data-name="&lt;Path&gt;" class="cls-6" d="M82.28 27.37q-.15 1-.34 2C77.52 52 62.42 59.84 43.12 59.84h-9.83a4.77 4.77 0 00-4.72 4l-5 31.9-1.42 9a2.51 2.51 0 002.48 2.91H42a4.19 4.19 0 004.14-3.53l.17-.89 3.28-20.82.21-1.14a4.19 4.19 0 014.2-3.46h2.61c16.88 0 30.1-6.85 34-26.69 1.61-8.29.78-15.21-3.49-20.07a16.66 16.66 0 00-4.84-3.68z"/><path id="_Path_5" data-name="&lt;Path&gt;" d="M77.66 25.53q-1-.29-2.08-.54t-2.21-.42a54.57 54.57 0 00-8.66-.63H38.46a4.18 4.18 0 00-4.14 3.54l-5.58 35.37-.16 1a4.77 4.77 0 014.72-4h9.82c19.3 0 34.4-7.84 38.82-30.51.13-.67.24-1.32.34-2a23.52 23.52 0 00-3.63-1.53z" fill="#222d65"/><path id="_Path_6" data-name="&lt;Path&gt;" class="cls-5" d="M34.32 27.49a4.19 4.19 0 014.14-3.54h26.25a54.57 54.57 0 018.66.63q1.14.18 2.21.42t2.08.54l1 .31a23.86 23.86 0 013.63 1.53c1.31-8.38 0-14.08-4.54-19.25C72.75 2.43 63.74 0 52.2 0H18.71A4.79 4.79 0 0014 4L0 92.46a2.88 2.88 0 002.84 3.33h20.71l5.19-32.93z"/></g></g></g></g></g></g></g></svg>