<svg xmlns="http://www.w3.org/2000/svg" width="512" height="512"><path d="M256 160c-52.928 0-96 43.072-96 96s43.072 96 96 96 96-43.072 96-96-43.072-96-96-96zm0 160c-35.296 0-64-28.704-64-64s28.704-64 64-64 64 28.704 64 64-28.704 64-64 64z" fill="#FFF"/><path d="M496 240h-48.8C439.456 146.88 365.12 72.544 272 64.8V16c0-8.832-7.168-16-16-16s-16 7.168-16 16v48.8C146.88 72.544 72.544 146.912 64.8 240H16c-8.832 0-16 7.168-16 16s7.168 16 16 16h48.8c7.744 93.12 82.08 167.456 175.2 175.2V496c0 8.832 7.168 16 16 16s16-7.168 16-16v-48.8c93.12-7.744 167.456-82.08 175.2-175.2H496c8.832 0 16-7.136 16-16 0-8.8-7.168-16-16-16zM256 416c-88.224 0-160-71.776-160-160S167.776 96 256 96s160 71.776 160 160-71.776 160-160 160z" fill="#FFF"/></svg>