<svg xmlns="http://www.w3.org/2000/svg" width="512" height="512"><path d="M452.028 222.199C447.087 131.883 361.062 59.733 256 59.733S64.913 131.883 59.972 222.199C25.745 224.683 0 242.372 0 264.533v34.133c0 23.927 29.986 42.667 68.267 42.667A8.525 8.525 0 0076.8 332.8V230.4c0-84.693 80.393-153.6 179.2-153.6s179.2 68.907 179.2 153.6v98.867l-20.599 20.599h-17.664c8.115-20.659 12.664-43.401 12.664-67.32 0-93.585-68.907-169.719-153.6-169.719s-153.6 76.134-153.6 169.719S171.307 452.267 256 452.267c56.883 0 106.53-34.423 133.077-85.333h29.056c2.27 0 4.437-.896 6.033-2.5l23.159-23.159c36.548-1.126 64.674-19.43 64.674-42.607v-34.133c.001-22.163-25.744-39.852-59.971-42.336zM59.733 323.9c-25.532-2.244-42.667-14.302-42.667-25.233v-34.133c0-10.931 17.135-22.989 42.667-25.233V323.9zm318.618 25.975h-79.684c0-14.114-11.486-25.6-25.6-25.6h-34.133c-14.114 0-25.6 11.486-25.6 25.6v17.067c0 14.114 11.486 25.6 25.6 25.6h34.133c14.114 0 25.6-11.486 25.6-25.6h71.014C345.19 408.038 303.394 435.2 256 435.2c-75.281 0-136.533-68.471-136.533-152.653S180.719 129.903 256 129.903s136.533 68.471 136.533 152.653c0 24.183-5.188 46.976-14.182 67.319zm-96.751-.008v17.067a8.536 8.536 0 01-8.533 8.533h-34.133a8.536 8.536 0 01-8.533-8.533v-17.067a8.536 8.536 0 018.533-8.533h34.133c4.71-.001 8.533 3.822 8.533 8.533zm213.333-51.2c0 10.931-17.135 22.989-42.667 25.233v-84.6c25.532 2.244 42.667 14.302 42.667 25.233v34.134z" fill="#FFF"/></svg>