<svg xmlns="http://www.w3.org/2000/svg" viewBox="0 0 511.999 511.999" width="512" height="512"><path d="M151.697 45.009c-3.098-10.844-10.234-19.832-20.092-25.309-9.858-5.476-21.259-6.791-32.103-3.688-10.845 3.098-19.833 10.234-25.31 20.092-5.477 9.858-6.788 21.26-3.689 32.103 3.098 10.844 10.234 19.832 20.093 25.309 9.752 5.417 21.376 6.752 32.103 3.689 16.555-4.73 28.875-19.516 30.465-36.693a42.364 42.364 0 00-1.467-15.503zm-17.704 24.317c-3.398 6.115-8.972 10.54-15.699 12.462-13.739 3.923-28.457-4.269-32.374-17.986h-.001c-1.921-6.725-1.107-13.797 2.288-19.912 3.398-6.114 8.972-10.539 15.699-12.462 13.746-3.925 28.455 4.273 32.375 17.986 1.922 6.725 1.109 13.797-2.288 19.912zm147.66 16.1H174.528c-.685 0-1.366.088-2.028.261L74.397 111.34a7.802 7.802 0 00-1.276.452l-39.997 18.096a25.118 25.118 0 00-15.193 16.995L.925 197.921a8.14 8.14 0 00-.172.591c-3.358 13.436 4.841 27.101 18.28 30.461a25.25 25.25 0 006.101.754 25.074 25.074 0 0024.255-18.639l13.565-38.734 17.627-6.61 2.767 9.687a8.02 8.02 0 009.911 5.506 8.018 8.018 0 005.506-9.911l-5.154-18.043c-1.267-4.431-6.201-6.926-10.524-5.304l-29.276 10.979a8.012 8.012 0 00-4.75 4.856l-14.915 42.588c-.777 2.21-1.686 4.374-3.625 5.816-2.153 1.602-5.006 2.151-7.605 1.501-4.776-1.194-7.723-5.988-6.67-10.765l16.98-50.963c.065-.195.122-.39.171-.588a9.086 9.086 0 015.626-6.305c.165-.063.329-.129.49-.202l39.596-17.915 96.448-25.221h106.094c5.01 0 9.086 4.076 9.086 9.086 0 5.01-4.076 9.086-9.086 9.086h-96.895c-5.334 0-9.262 5.362-7.638 10.452l21.825 68.444-85.038 25.48-7.809-27.332c-1.217-4.256-5.657-6.727-9.911-5.505a8.017 8.017 0 00-5.506 9.91l52.648 184.268c3.758 13.154 17.869 21.018 31.052 17.253 13.123-3.75 20.99-17.81 17.277-30.972l-28.504-107.346 17.917-5.119 41.617 126.354c3.831 13.061 17.891 20.831 31.003 17.082 13.155-3.758 21.019-17.872 17.253-31.054a8.94 8.94 0 00-.069-.233l-9.407-29.499a8.016 8.016 0 10-15.275 4.871l9.365 29.367c1.299 4.744-1.551 9.784-6.268 11.131-5.129 1.459-9.74-1.738-11.326-6.546l-23.466-71.246 17.956-5.792 5.558 17.433c1.381 4.333 6.249 6.665 10.497 5.053 3.925-1.489 6.052-5.929 4.779-9.924l-57.557-180.497h85.925c13.851 0 25.119-11.268 25.119-25.119-.001-13.852-11.269-25.12-25.12-25.12zM176.177 375.807c.014.048.027.095.039.143 1.363 4.767-1.481 9.872-6.24 11.233-4.768 1.356-9.871-1.479-11.232-6.24l-22.08-77.283 18.915-5.425 20.598 77.572zm51.402-87.483l-18.101 5.838-15.59-47.332c-1.325-4.023-5.747-6.363-9.818-5.2l-32.889 9.397c-4.144 1.184-6.654 5.595-5.545 9.766l5.827 21.942-19.204 5.508-13.948-48.819 85.505-25.62 23.763 74.52z" fill="#FFF"/><path d="M307.307 413.19H131.052l-14.754-14.755a8.017 8.017 0 10-11.338 11.338l17.102 17.103a8.018 8.018 0 005.669 2.347h179.574a8.016 8.016 0 008.017-8.017 8.013 8.013 0 00-8.015-8.016zm196.676-307.842H369.591L323.873 74.87V62.058a8.016 8.016 0 00-8.017-8.017 8.016 8.016 0 00-8.017 8.017v94.063a8.016 8.016 0 008.017 8.017 8.016 8.016 0 008.017-8.017v-12.148l45.183-22.591h134.926a8.016 8.016 0 008.017-8.017 8.015 8.015 0 00-8.016-8.017zm-153.351 7.321l-26.758 13.378V94.14l26.842 17.894c-.035.21-.066.42-.084.635zm144.8 334.726a8.016 8.016 0 00-8.017 8.017c0 14.441-11.747 26.188-26.188 26.188s-26.188-11.747-26.188-26.188a8.016 8.016 0 00-8.017-8.017 8.016 8.016 0 00-8.017 8.017c0 14.441-11.747 26.188-26.188 26.188s-26.188-11.747-26.188-26.188a8.016 8.016 0 00-8.017-8.017 8.016 8.016 0 00-8.017 8.017c0 14.441-11.747 26.188-26.188 26.188s-26.188-11.747-26.188-26.188a8.016 8.016 0 00-8.017-8.017 8.016 8.016 0 00-8.017 8.017c0 14.441-11.747 26.188-26.188 26.188-14.441 0-26.188-11.747-26.188-26.188a8.016 8.016 0 00-8.017-8.017 8.016 8.016 0 00-8.017 8.017c0 14.441-11.747 26.188-26.188 26.188s-26.188-11.747-26.188-26.188a8.016 8.016 0 00-8.017-8.017 8.016 8.016 0 00-8.017 8.017c0 14.441-11.747 26.188-26.188 26.188-14.441 0-26.188-11.747-26.188-26.188a8.016 8.016 0 00-8.017-8.017 8.016 8.016 0 00-8.017 8.017c0 14.441-11.747 26.188-26.188 26.188s-26.188-11.747-26.188-26.188a8.016 8.016 0 00-8.017-8.017 8.016 8.016 0 00-8.017 8.017c0 23.281 18.941 42.221 42.221 42.221 14.053 0 26.526-6.903 34.205-17.495 7.679 10.592 20.152 17.495 34.205 17.495 14.053 0 26.526-6.903 34.205-17.495 7.679 10.592 20.152 17.495 34.205 17.495s26.526-6.903 34.205-17.495c7.679 10.592 20.152 17.495 34.205 17.495 14.053 0 26.526-6.903 34.205-17.495 7.679 10.592 20.152 17.495 34.205 17.495s26.526-6.903 34.205-17.495c7.679 10.592 20.152 17.495 34.205 17.495 14.053 0 26.526-6.903 34.205-17.495 7.679 10.592 20.152 17.495 34.205 17.495 23.281 0 42.221-18.941 42.221-42.221a8.014 8.014 0 00-8.015-8.017zM84.976 250.718H16.567a8.016 8.016 0 00-8.017 8.017 8.016 8.016 0 008.017 8.017h68.409a8.017 8.017 0 008.017-8.017 8.015 8.015 0 00-8.017-8.017zm8.551 34.205H42.22a8.016 8.016 0 00-8.017 8.017 8.016 8.016 0 008.017 8.017h51.307a8.016 8.016 0 008.017-8.017 8.015 8.015 0 00-8.017-8.017zm8.552 34.204H76.425a8.016 8.016 0 00-8.017 8.017 8.016 8.016 0 008.017 8.017h25.654a8.017 8.017 0 000-16.034z" fill="#FFF"/></svg>